<?xml version="1.0" standalone="no"?>
 <!DOCTYPE svg PUBLIC "-//W3C//DTD SVG 1.1//EN" 
 "http://www.w3.org/Graphics/SVG/1.1/DTD/svg11.dtd"> 
<svg
  xmlns:svg="http://www.w3.org/2000/svg"
  xmlns="http://www.w3.org/2000/svg"
  xmlns:xlink="http://www.w3.org/1999/xlink"
  version="1.1"
  width="297.0022mm" height="210.0072mm" viewBox="0.0000 0.0000 297.0022 210.0072">
<title>SVG Image created as MIDI_CV_Trig-F_Silkscreen.svg date 2025/12/09 20:25:10 </title>
  <desc>Image generated by PCBNEW </desc>
<g style="fill:#000000; fill-opacity:1.0000;stroke:#000000; stroke-opacity:1.0000;
stroke-linecap:round; stroke-linejoin:round;"
 transform="translate(0 0) scale(1 1)">
</g>
<g style="fill:none; 
stroke:#F2EDA1; stroke-width:0.1500; stroke-opacity:1; 
stroke-linecap:round; stroke-linejoin:round;">
<g transform="rotate(-90.000000 70.3800 46.2500)">
<text x="70.3800" y="46.7500"
textLength="2.9167" font-size="1.3333" lengthAdjust="spacingAndGlyphs"
text-anchor="middle" opacity="0" stroke-opacity="0">J13</text>
</g>
<g class="stroked-text"><desc>J13</desc>
<path d="M69.8348 47.0595
L70.5491 47.0595
" />
<path d="M70.5491 47.0595
L70.6920 47.1071
" />
<path d="M70.6920 47.1071
L70.7872 47.2024
" />
<path d="M70.7872 47.2024
L70.8348 47.3452
" />
<path d="M70.8348 47.3452
L70.8348 47.4405
" />
<path d="M70.8348 46.0595
L70.8348 46.6310
" />
<path d="M70.8348 46.3452
L69.8348 46.3452
" />
<path d="M69.8348 46.3452
L69.9777 46.4405
" />
<path d="M69.9777 46.4405
L70.0729 46.5357
" />
<path d="M70.0729 46.5357
L70.1205 46.6310
" />
<path d="M69.8348 45.7262
L69.8348 45.1071
" />
<path d="M69.8348 45.1071
L70.2158 45.4405
" />
<path d="M70.2158 45.4405
L70.2158 45.2976
" />
<path d="M70.2158 45.2976
L70.2634 45.2024
" />
<path d="M70.2634 45.2024
L70.3110 45.1548
" />
<path d="M70.3110 45.1548
L70.4062 45.1071
" />
<path d="M70.4062 45.1071
L70.6443 45.1071
" />
<path d="M70.6443 45.1071
L70.7396 45.1548
" />
<path d="M70.7396 45.1548
L70.7872 45.2024
" />
<path d="M70.7872 45.2024
L70.8348 45.2976
" />
<path d="M70.8348 45.2976
L70.8348 45.5833
" />
<path d="M70.8348 45.5833
L70.7872 45.6786
" />
<path d="M70.7872 45.6786
L70.7396 45.7262
" />
</g><text x="62.4700" y="100.1800"
textLength="1.9643" font-size="1.3333" lengthAdjust="spacingAndGlyphs"
text-anchor="middle" opacity="0" stroke-opacity="0">J6</text>
<g class="stroked-text"><desc>J6</desc>
<path d="M62.1367 99.1348
L62.1367 99.8491
" />
<path d="M62.1367 99.8491
L62.0890 99.9920
" />
<path d="M62.0890 99.9920
L61.9938 100.0872
" />
<path d="M61.9938 100.0872
L61.8510 100.1348
" />
<path d="M61.8510 100.1348
L61.7557 100.1348
" />
<path d="M63.0414 99.1348
L62.8510 99.1348
" />
<path d="M62.8510 99.1348
L62.7557 99.1824
" />
<path d="M62.7557 99.1824
L62.7081 99.2301
" />
<path d="M62.7081 99.2301
L62.6129 99.3729
" />
<path d="M62.6129 99.3729
L62.5652 99.5634
" />
<path d="M62.5652 99.5634
L62.5652 99.9443
" />
<path d="M62.5652 99.9443
L62.6129 100.0396
" />
<path d="M62.6129 100.0396
L62.6605 100.0872
" />
<path d="M62.6605 100.0872
L62.7557 100.1348
" />
<path d="M62.7557 100.1348
L62.9462 100.1348
" />
<path d="M62.9462 100.1348
L63.0414 100.0872
" />
<path d="M63.0414 100.0872
L63.0890 100.0396
" />
<path d="M63.0890 100.0396
L63.1367 99.9443
" />
<path d="M63.1367 99.9443
L63.1367 99.7062
" />
<path d="M63.1367 99.7062
L63.0890 99.6110
" />
<path d="M63.0890 99.6110
L63.0414 99.5634
" />
<path d="M63.0414 99.5634
L62.9462 99.5158
" />
<path d="M62.9462 99.5158
L62.7557 99.5158
" />
<path d="M62.7557 99.5158
L62.6605 99.5634
" />
<path d="M62.6605 99.5634
L62.6129 99.6110
" />
<path d="M62.6129 99.6110
L62.5652 99.7062
" />
</g><text x="81.5000" y="96.6000"
textLength="2.9167" font-size="1.3333" lengthAdjust="spacingAndGlyphs"
text-anchor="middle" opacity="0" stroke-opacity="0">J10</text>
<g class="stroked-text"><desc>J10</desc>
<path d="M80.6905 95.5548
L80.6905 96.2691
" />
<path d="M80.6905 96.2691
L80.6429 96.4120
" />
<path d="M80.6429 96.4120
L80.5476 96.5072
" />
<path d="M80.5476 96.5072
L80.4048 96.5548
" />
<path d="M80.4048 96.5548
L80.3095 96.5548
" />
<path d="M81.6905 96.5548
L81.1190 96.5548
" />
<path d="M81.4048 96.5548
L81.4048 95.5548
" />
<path d="M81.4048 95.5548
L81.3095 95.6977
" />
<path d="M81.3095 95.6977
L81.2143 95.7929
" />
<path d="M81.2143 95.7929
L81.1190 95.8405
" />
<path d="M82.3095 95.5548
L82.4048 95.5548
" />
<path d="M82.4048 95.5548
L82.5000 95.6024
" />
<path d="M82.5000 95.6024
L82.5476 95.6501
" />
<path d="M82.5476 95.6501
L82.5952 95.7453
" />
<path d="M82.5952 95.7453
L82.6429 95.9358
" />
<path d="M82.6429 95.9358
L82.6429 96.1739
" />
<path d="M82.6429 96.1739
L82.5952 96.3643
" />
<path d="M82.5952 96.3643
L82.5476 96.4596
" />
<path d="M82.5476 96.4596
L82.5000 96.5072
" />
<path d="M82.5000 96.5072
L82.4048 96.5548
" />
<path d="M82.4048 96.5548
L82.3095 96.5548
" />
<path d="M82.3095 96.5548
L82.2143 96.5072
" />
<path d="M82.2143 96.5072
L82.1667 96.4596
" />
<path d="M82.1667 96.4596
L82.1190 96.3643
" />
<path d="M82.1190 96.3643
L82.0714 96.1739
" />
<path d="M82.0714 96.1739
L82.0714 95.9358
" />
<path d="M82.0714 95.9358
L82.1190 95.7453
" />
<path d="M82.1190 95.7453
L82.1667 95.6501
" />
<path d="M82.1667 95.6501
L82.2143 95.6024
" />
<path d="M82.2143 95.6024
L82.3095 95.5548
" />
</g><text x="81.6000" y="112.4000"
textLength="2.9167" font-size="1.3333" lengthAdjust="spacingAndGlyphs"
text-anchor="middle" opacity="0" stroke-opacity="0">J11</text>
<g class="stroked-text"><desc>J11</desc>
<path d="M80.7905 111.3548
L80.7905 112.0691
" />
<path d="M80.7905 112.0691
L80.7429 112.2120
" />
<path d="M80.7429 112.2120
L80.6476 112.3072
" />
<path d="M80.6476 112.3072
L80.5048 112.3548
" />
<path d="M80.5048 112.3548
L80.4095 112.3548
" />
<path d="M81.7905 112.3548
L81.2190 112.3548
" />
<path d="M81.5048 112.3548
L81.5048 111.3548
" />
<path d="M81.5048 111.3548
L81.4095 111.4977
" />
<path d="M81.4095 111.4977
L81.3143 111.5929
" />
<path d="M81.3143 111.5929
L81.2190 111.6405
" />
<path d="M82.7429 112.3548
L82.1714 112.3548
" />
<path d="M82.4571 112.3548
L82.4571 111.3548
" />
<path d="M82.4571 111.3548
L82.3619 111.4977
" />
<path d="M82.3619 111.4977
L82.2667 111.5929
" />
<path d="M82.2667 111.5929
L82.1714 111.6405
" />
</g><text x="77.4700" y="52.1800"
textLength="1.9643" font-size="1.3333" lengthAdjust="spacingAndGlyphs"
text-anchor="middle" opacity="0" stroke-opacity="0">J8</text>
<g class="stroked-text"><desc>J8</desc>
<path d="M77.1367 51.1348
L77.1367 51.8491
" />
<path d="M77.1367 51.8491
L77.0890 51.9920
" />
<path d="M77.0890 51.9920
L76.9938 52.0872
" />
<path d="M76.9938 52.0872
L76.8510 52.1348
" />
<path d="M76.8510 52.1348
L76.7557 52.1348
" />
<path d="M77.7557 51.5634
L77.6605 51.5158
" />
<path d="M77.6605 51.5158
L77.6129 51.4682
" />
<path d="M77.6129 51.4682
L77.5652 51.3729
" />
<path d="M77.5652 51.3729
L77.5652 51.3253
" />
<path d="M77.5652 51.3253
L77.6129 51.2301
" />
<path d="M77.6129 51.2301
L77.6605 51.1824
" />
<path d="M77.6605 51.1824
L77.7557 51.1348
" />
<path d="M77.7557 51.1348
L77.9462 51.1348
" />
<path d="M77.9462 51.1348
L78.0414 51.1824
" />
<path d="M78.0414 51.1824
L78.0890 51.2301
" />
<path d="M78.0890 51.2301
L78.1367 51.3253
" />
<path d="M78.1367 51.3253
L78.1367 51.3729
" />
<path d="M78.1367 51.3729
L78.0890 51.4682
" />
<path d="M78.0890 51.4682
L78.0414 51.5158
" />
<path d="M78.0414 51.5158
L77.9462 51.5634
" />
<path d="M77.9462 51.5634
L77.7557 51.5634
" />
<path d="M77.7557 51.5634
L77.6605 51.6110
" />
<path d="M77.6605 51.6110
L77.6129 51.6586
" />
<path d="M77.6129 51.6586
L77.5652 51.7539
" />
<path d="M77.5652 51.7539
L77.5652 51.9443
" />
<path d="M77.5652 51.9443
L77.6129 52.0396
" />
<path d="M77.6129 52.0396
L77.6605 52.0872
" />
<path d="M77.6605 52.0872
L77.7557 52.1348
" />
<path d="M77.7557 52.1348
L77.9462 52.1348
" />
<path d="M77.9462 52.1348
L78.0414 52.0872
" />
<path d="M78.0414 52.0872
L78.0890 52.0396
" />
<path d="M78.0890 52.0396
L78.1367 51.9443
" />
<path d="M78.1367 51.9443
L78.1367 51.7539
" />
<path d="M78.1367 51.7539
L78.0890 51.6586
" />
<path d="M78.0890 51.6586
L78.0414 51.6110
" />
<path d="M78.0414 51.6110
L77.9462 51.5634
" />
</g><g transform="rotate(-90.000000 87.2500 117.2500)">
<text x="87.2500" y="117.7500"
textLength="2.2024" font-size="1.3333" lengthAdjust="spacingAndGlyphs"
text-anchor="middle" opacity="0" stroke-opacity="0">R4</text>
</g>
<g class="stroked-text"><desc>R4</desc>
<path d="M87.7048 117.4167
L87.2286 117.7500
" />
<path d="M87.7048 117.9881
L86.7048 117.9881
" />
<path d="M86.7048 117.9881
L86.7048 117.6071
" />
<path d="M86.7048 117.6071
L86.7524 117.5119
" />
<path d="M86.7524 117.5119
L86.8001 117.4643
" />
<path d="M86.8001 117.4643
L86.8953 117.4167
" />
<path d="M86.8953 117.4167
L87.0382 117.4167
" />
<path d="M87.0382 117.4167
L87.1334 117.4643
" />
<path d="M87.1334 117.4643
L87.1810 117.5119
" />
<path d="M87.1810 117.5119
L87.2286 117.6071
" />
<path d="M87.2286 117.6071
L87.2286 117.9881
" />
<path d="M87.0382 116.5595
L87.7048 116.5595
" />
<path d="M86.6572 116.7976
L87.3715 117.0357
" />
<path d="M87.3715 117.0357
L87.3715 116.4167
" />
</g><text x="62.4700" y="84.2600"
textLength="1.9643" font-size="1.3333" lengthAdjust="spacingAndGlyphs"
text-anchor="middle" opacity="0" stroke-opacity="0">J5</text>
<g class="stroked-text"><desc>J5</desc>
<path d="M62.1367 83.2148
L62.1367 83.9291
" />
<path d="M62.1367 83.9291
L62.0890 84.0720
" />
<path d="M62.0890 84.0720
L61.9938 84.1672
" />
<path d="M61.9938 84.1672
L61.8510 84.2148
" />
<path d="M61.8510 84.2148
L61.7557 84.2148
" />
<path d="M63.0890 83.2148
L62.6129 83.2148
" />
<path d="M62.6129 83.2148
L62.5652 83.6910
" />
<path d="M62.5652 83.6910
L62.6129 83.6434
" />
<path d="M62.6129 83.6434
L62.7081 83.5958
" />
<path d="M62.7081 83.5958
L62.9462 83.5958
" />
<path d="M62.9462 83.5958
L63.0414 83.6434
" />
<path d="M63.0414 83.6434
L63.0890 83.6910
" />
<path d="M63.0890 83.6910
L63.1367 83.7862
" />
<path d="M63.1367 83.7862
L63.1367 84.0243
" />
<path d="M63.1367 84.0243
L63.0890 84.1196
" />
<path d="M63.0890 84.1196
L63.0414 84.1672
" />
<path d="M63.0414 84.1672
L62.9462 84.2148
" />
<path d="M62.9462 84.2148
L62.7081 84.2148
" />
<path d="M62.7081 84.2148
L62.6129 84.1672
" />
<path d="M62.6129 84.1672
L62.5652 84.1196
" />
</g><g transform="rotate(-90.000000 78.1200 123.7500)">
<text x="78.1200" y="124.2500"
textLength="1.9643" font-size="1.3333" lengthAdjust="spacingAndGlyphs"
text-anchor="middle" opacity="0" stroke-opacity="0">J2</text>
</g>
<g class="stroked-text"><desc>J2</desc>
<path d="M77.5748 124.0833
L78.2891 124.0833
" />
<path d="M78.2891 124.0833
L78.4320 124.1310
" />
<path d="M78.4320 124.1310
L78.5272 124.2262
" />
<path d="M78.5272 124.2262
L78.5748 124.3690
" />
<path d="M78.5748 124.3690
L78.5748 124.4643
" />
<path d="M77.6701 123.6548
L77.6224 123.6071
" />
<path d="M77.6224 123.6071
L77.5748 123.5119
" />
<path d="M77.5748 123.5119
L77.5748 123.2738
" />
<path d="M77.5748 123.2738
L77.6224 123.1786
" />
<path d="M77.6224 123.1786
L77.6701 123.1310
" />
<path d="M77.6701 123.1310
L77.7653 123.0833
" />
<path d="M77.7653 123.0833
L77.8605 123.0833
" />
<path d="M77.8605 123.0833
L78.0034 123.1310
" />
<path d="M78.0034 123.1310
L78.5748 123.7024
" />
<path d="M78.5748 123.7024
L78.5748 123.0833
" />
</g><text x="62.4700" y="52.2600"
textLength="1.9643" font-size="1.3333" lengthAdjust="spacingAndGlyphs"
text-anchor="middle" opacity="0" stroke-opacity="0">J3</text>
<g class="stroked-text"><desc>J3</desc>
<path d="M62.1367 51.2148
L62.1367 51.9291
" />
<path d="M62.1367 51.9291
L62.0890 52.0720
" />
<path d="M62.0890 52.0720
L61.9938 52.1672
" />
<path d="M61.9938 52.1672
L61.8510 52.2148
" />
<path d="M61.8510 52.2148
L61.7557 52.2148
" />
<path d="M62.5176 51.2148
L63.1367 51.2148
" />
<path d="M63.1367 51.2148
L62.8033 51.5958
" />
<path d="M62.8033 51.5958
L62.9462 51.5958
" />
<path d="M62.9462 51.5958
L63.0414 51.6434
" />
<path d="M63.0414 51.6434
L63.0890 51.6910
" />
<path d="M63.0890 51.6910
L63.1367 51.7862
" />
<path d="M63.1367 51.7862
L63.1367 52.0243
" />
<path d="M63.1367 52.0243
L63.0890 52.1196
" />
<path d="M63.0890 52.1196
L63.0414 52.1672
" />
<path d="M63.0414 52.1672
L62.9462 52.2148
" />
<path d="M62.9462 52.2148
L62.6605 52.2148
" />
<path d="M62.6605 52.2148
L62.5652 52.1672
" />
<path d="M62.5652 52.1672
L62.5176 52.1196
" />
</g><text x="66.4000" y="80.7000"
textLength="1.9643" font-size="1.3333" lengthAdjust="spacingAndGlyphs"
text-anchor="middle" opacity="0" stroke-opacity="0">J4</text>
<g class="stroked-text"><desc>J4</desc>
<path d="M66.0667 79.6548
L66.0667 80.3691
" />
<path d="M66.0667 80.3691
L66.0190 80.5120
" />
<path d="M66.0190 80.5120
L65.9238 80.6072
" />
<path d="M65.9238 80.6072
L65.7810 80.6548
" />
<path d="M65.7810 80.6548
L65.6857 80.6548
" />
<path d="M66.9714 79.9882
L66.9714 80.6548
" />
<path d="M66.7333 79.6072
L66.4952 80.3215
" />
<path d="M66.4952 80.3215
L67.1143 80.3215
" />
</g><g transform="rotate(-90.000000 81.6400 116.5050)">
<text x="81.6400" y="117.0050"
textLength="2.2500" font-size="1.3333" lengthAdjust="spacingAndGlyphs"
text-anchor="middle" opacity="0" stroke-opacity="0">U5</text>
</g>
<g class="stroked-text"><desc>U5</desc>
<path d="M81.0948 117.2669
L81.9043 117.2669
" />
<path d="M81.9043 117.2669
L81.9996 117.2193
" />
<path d="M81.9996 117.2193
L82.0472 117.1717
" />
<path d="M82.0472 117.1717
L82.0948 117.0764
" />
<path d="M82.0948 117.0764
L82.0948 116.8860
" />
<path d="M82.0948 116.8860
L82.0472 116.7907
" />
<path d="M82.0472 116.7907
L81.9996 116.7431
" />
<path d="M81.9996 116.7431
L81.9043 116.6955
" />
<path d="M81.9043 116.6955
L81.0948 116.6955
" />
<path d="M81.0948 115.7431
L81.0948 116.2193
" />
<path d="M81.0948 116.2193
L81.5710 116.2669
" />
<path d="M81.5710 116.2669
L81.5234 116.2193
" />
<path d="M81.5234 116.2193
L81.4758 116.1240
" />
<path d="M81.4758 116.1240
L81.4758 115.8860
" />
<path d="M81.4758 115.8860
L81.5234 115.7907
" />
<path d="M81.5234 115.7907
L81.5710 115.7431
" />
<path d="M81.5710 115.7431
L81.6662 115.6955
" />
<path d="M81.6662 115.6955
L81.9043 115.6955
" />
<path d="M81.9043 115.6955
L81.9996 115.7431
" />
<path d="M81.9996 115.7431
L82.0472 115.7907
" />
<path d="M82.0472 115.7907
L82.0948 115.8860
" />
<path d="M82.0948 115.8860
L82.0948 116.1240
" />
<path d="M82.0948 116.1240
L82.0472 116.2193
" />
<path d="M82.0472 116.2193
L81.9996 116.2669
" />
</g><text x="78.3000" y="80.3000"
textLength="1.9643" font-size="1.3333" lengthAdjust="spacingAndGlyphs"
text-anchor="middle" opacity="0" stroke-opacity="0">J9</text>
<g class="stroked-text"><desc>J9</desc>
<path d="M77.9667 79.2548
L77.9667 79.9691
" />
<path d="M77.9667 79.9691
L77.9190 80.1120
" />
<path d="M77.9190 80.1120
L77.8238 80.2072
" />
<path d="M77.8238 80.2072
L77.6810 80.2548
" />
<path d="M77.6810 80.2548
L77.5857 80.2548
" />
<path d="M78.4905 80.2548
L78.6810 80.2548
" />
<path d="M78.6810 80.2548
L78.7762 80.2072
" />
<path d="M78.7762 80.2072
L78.8238 80.1596
" />
<path d="M78.8238 80.1596
L78.9190 80.0167
" />
<path d="M78.9190 80.0167
L78.9667 79.8262
" />
<path d="M78.9667 79.8262
L78.9667 79.4453
" />
<path d="M78.9667 79.4453
L78.9190 79.3501
" />
<path d="M78.9190 79.3501
L78.8714 79.3024
" />
<path d="M78.8714 79.3024
L78.7762 79.2548
" />
<path d="M78.7762 79.2548
L78.5857 79.2548
" />
<path d="M78.5857 79.2548
L78.4905 79.3024
" />
<path d="M78.4905 79.3024
L78.4429 79.3501
" />
<path d="M78.4429 79.3501
L78.3952 79.4453
" />
<path d="M78.3952 79.4453
L78.3952 79.6834
" />
<path d="M78.3952 79.6834
L78.4429 79.7786
" />
<path d="M78.4429 79.7786
L78.4905 79.8262
" />
<path d="M78.4905 79.8262
L78.5857 79.8739
" />
<path d="M78.5857 79.8739
L78.7762 79.8739
" />
<path d="M78.7762 79.8739
L78.8714 79.8262
" />
<path d="M78.8714 79.8262
L78.9190 79.7786
" />
<path d="M78.9190 79.7786
L78.9667 79.6834
" />
</g><g transform="rotate(-90.000000 67.2500 115.7500)">
<text x="67.2500" y="116.2500"
textLength="2.2024" font-size="1.3333" lengthAdjust="spacingAndGlyphs"
text-anchor="middle" opacity="0" stroke-opacity="0">R6</text>
</g>
<g class="stroked-text"><desc>R6</desc>
<path d="M67.7048 115.9167
L67.2286 116.2500
" />
<path d="M67.7048 116.4881
L66.7048 116.4881
" />
<path d="M66.7048 116.4881
L66.7048 116.1071
" />
<path d="M66.7048 116.1071
L66.7524 116.0119
" />
<path d="M66.7524 116.0119
L66.8001 115.9643
" />
<path d="M66.8001 115.9643
L66.8953 115.9167
" />
<path d="M66.8953 115.9167
L67.0382 115.9167
" />
<path d="M67.0382 115.9167
L67.1334 115.9643
" />
<path d="M67.1334 115.9643
L67.1810 116.0119
" />
<path d="M67.1810 116.0119
L67.2286 116.1071
" />
<path d="M67.2286 116.1071
L67.2286 116.4881
" />
<path d="M66.7048 115.0595
L66.7048 115.2500
" />
<path d="M66.7048 115.2500
L66.7524 115.3452
" />
<path d="M66.7524 115.3452
L66.8001 115.3929
" />
<path d="M66.8001 115.3929
L66.9429 115.4881
" />
<path d="M66.9429 115.4881
L67.1334 115.5357
" />
<path d="M67.1334 115.5357
L67.5143 115.5357
" />
<path d="M67.5143 115.5357
L67.6096 115.4881
" />
<path d="M67.6096 115.4881
L67.6572 115.4405
" />
<path d="M67.6572 115.4405
L67.7048 115.3452
" />
<path d="M67.7048 115.3452
L67.7048 115.1548
" />
<path d="M67.7048 115.1548
L67.6572 115.0595
" />
<path d="M67.6572 115.0595
L67.6096 115.0119
" />
<path d="M67.6096 115.0119
L67.5143 114.9643
" />
<path d="M67.5143 114.9643
L67.2762 114.9643
" />
<path d="M67.2762 114.9643
L67.1810 115.0119
" />
<path d="M67.1810 115.0119
L67.1334 115.0595
" />
<path d="M67.1334 115.0595
L67.0858 115.1548
" />
<path d="M67.0858 115.1548
L67.0858 115.3452
" />
<path d="M67.0858 115.3452
L67.1334 115.4405
" />
<path d="M67.1334 115.4405
L67.1810 115.4881
" />
<path d="M67.1810 115.4881
L67.2762 115.5357
" />
</g><text x="62.4700" y="125.1800"
textLength="1.9643" font-size="1.3333" lengthAdjust="spacingAndGlyphs"
text-anchor="middle" opacity="0" stroke-opacity="0">J7</text>
<g class="stroked-text"><desc>J7</desc>
<path d="M62.1367 124.1348
L62.1367 124.8491
" />
<path d="M62.1367 124.8491
L62.0890 124.9920
" />
<path d="M62.0890 124.9920
L61.9938 125.0872
" />
<path d="M61.9938 125.0872
L61.8510 125.1348
" />
<path d="M61.8510 125.1348
L61.7557 125.1348
" />
<path d="M62.5176 124.1348
L63.1843 124.1348
" />
<path d="M63.1843 124.1348
L62.7557 125.1348
" />
</g><g transform="rotate(-90.000000 58.2000 46.2250)">
<text x="58.2000" y="46.7250"
textLength="3.1548" font-size="1.3333" lengthAdjust="spacingAndGlyphs"
text-anchor="middle" opacity="0" stroke-opacity="0">R40</text>
</g>
<g class="stroked-text"><desc>R40</desc>
<path d="M58.6548 46.8679
L58.1786 47.2012
" />
<path d="M58.6548 47.4393
L57.6548 47.4393
" />
<path d="M57.6548 47.4393
L57.6548 47.0583
" />
<path d="M57.6548 47.0583
L57.7024 46.9631
" />
<path d="M57.7024 46.9631
L57.7501 46.9155
" />
<path d="M57.7501 46.9155
L57.8453 46.8679
" />
<path d="M57.8453 46.8679
L57.9882 46.8679
" />
<path d="M57.9882 46.8679
L58.0834 46.9155
" />
<path d="M58.0834 46.9155
L58.1310 46.9631
" />
<path d="M58.1310 46.9631
L58.1786 47.0583
" />
<path d="M58.1786 47.0583
L58.1786 47.4393
" />
<path d="M57.9882 46.0107
L58.6548 46.0107
" />
<path d="M57.6072 46.2488
L58.3215 46.4869
" />
<path d="M58.3215 46.4869
L58.3215 45.8679
" />
<path d="M57.6548 45.2964
L57.6548 45.2012
" />
<path d="M57.6548 45.2012
L57.7024 45.1060
" />
<path d="M57.7024 45.1060
L57.7501 45.0583
" />
<path d="M57.7501 45.0583
L57.8453 45.0107
" />
<path d="M57.8453 45.0107
L58.0358 44.9631
" />
<path d="M58.0358 44.9631
L58.2739 44.9631
" />
<path d="M58.2739 44.9631
L58.4643 45.0107
" />
<path d="M58.4643 45.0107
L58.5596 45.0583
" />
<path d="M58.5596 45.0583
L58.6072 45.1060
" />
<path d="M58.6072 45.1060
L58.6548 45.2012
" />
<path d="M58.6548 45.2012
L58.6548 45.2964
" />
<path d="M58.6548 45.2964
L58.6072 45.3917
" />
<path d="M58.6072 45.3917
L58.5596 45.4393
" />
<path d="M58.5596 45.4393
L58.4643 45.4869
" />
<path d="M58.4643 45.4869
L58.2739 45.5345
" />
<path d="M58.2739 45.5345
L58.0358 45.5345
" />
<path d="M58.0358 45.5345
L57.8453 45.4869
" />
<path d="M57.8453 45.4869
L57.7501 45.4393
" />
<path d="M57.7501 45.4393
L57.7024 45.3917
" />
<path d="M57.7024 45.3917
L57.6548 45.2964
" />
</g><g transform="rotate(-90.000000 86.2500 114.5000)">
<text x="86.2500" y="115.0000"
textLength="2.2024" font-size="1.3333" lengthAdjust="spacingAndGlyphs"
text-anchor="middle" opacity="0" stroke-opacity="0">D1</text>
</g>
<g class="stroked-text"><desc>D1</desc>
<path d="M86.7048 115.2381
L85.7048 115.2381
" />
<path d="M85.7048 115.2381
L85.7048 115.0000
" />
<path d="M85.7048 115.0000
L85.7524 114.8571
" />
<path d="M85.7524 114.8571
L85.8477 114.7619
" />
<path d="M85.8477 114.7619
L85.9429 114.7143
" />
<path d="M85.9429 114.7143
L86.1334 114.6667
" />
<path d="M86.1334 114.6667
L86.2762 114.6667
" />
<path d="M86.2762 114.6667
L86.4667 114.7143
" />
<path d="M86.4667 114.7143
L86.5620 114.7619
" />
<path d="M86.5620 114.7619
L86.6572 114.8571
" />
<path d="M86.6572 114.8571
L86.7048 115.0000
" />
<path d="M86.7048 115.0000
L86.7048 115.2381
" />
<path d="M86.7048 113.7143
L86.7048 114.2857
" />
<path d="M86.7048 114.0000
L85.7048 114.0000
" />
<path d="M85.7048 114.0000
L85.8477 114.0952
" />
<path d="M85.8477 114.0952
L85.9429 114.1905
" />
<path d="M85.9429 114.1905
L85.9905 114.2857
" />
</g><g transform="rotate(-90.000000 82.4500 120.5600)">
<text x="82.4500" y="121.0600"
textLength="1.2500" font-size="1.3333" lengthAdjust="spacingAndGlyphs"
text-anchor="middle" opacity="0" stroke-opacity="0">K</text>
</g>
<g class="stroked-text"><desc>K</desc>
<path d="M82.9048 120.8219
L81.9048 120.8219
" />
<path d="M82.9048 120.2505
L82.3334 120.6790
" />
<path d="M81.9048 120.2505
L82.4762 120.8219
" />
</g><g transform="rotate(-90.000000 67.4000 120.8000)">
<text x="67.4000" y="121.3000"
textLength="2.2024" font-size="1.3333" lengthAdjust="spacingAndGlyphs"
text-anchor="middle" opacity="0" stroke-opacity="0">R5</text>
</g>
<g class="stroked-text"><desc>R5</desc>
<path d="M67.8548 120.9667
L67.3786 121.3000
" />
<path d="M67.8548 121.5381
L66.8548 121.5381
" />
<path d="M66.8548 121.5381
L66.8548 121.1571
" />
<path d="M66.8548 121.1571
L66.9024 121.0619
" />
<path d="M66.9024 121.0619
L66.9501 121.0143
" />
<path d="M66.9501 121.0143
L67.0453 120.9667
" />
<path d="M67.0453 120.9667
L67.1882 120.9667
" />
<path d="M67.1882 120.9667
L67.2834 121.0143
" />
<path d="M67.2834 121.0143
L67.3310 121.0619
" />
<path d="M67.3310 121.0619
L67.3786 121.1571
" />
<path d="M67.3786 121.1571
L67.3786 121.5381
" />
<path d="M66.8548 120.0619
L66.8548 120.5381
" />
<path d="M66.8548 120.5381
L67.3310 120.5857
" />
<path d="M67.3310 120.5857
L67.2834 120.5381
" />
<path d="M67.2834 120.5381
L67.2358 120.4429
" />
<path d="M67.2358 120.4429
L67.2358 120.2048
" />
<path d="M67.2358 120.2048
L67.2834 120.1095
" />
<path d="M67.2834 120.1095
L67.3310 120.0619
" />
<path d="M67.3310 120.0619
L67.4262 120.0143
" />
<path d="M67.4262 120.0143
L67.6643 120.0143
" />
<path d="M67.6643 120.0143
L67.7596 120.0619
" />
<path d="M67.7596 120.0619
L67.8072 120.1095
" />
<path d="M67.8072 120.1095
L67.8548 120.2048
" />
<path d="M67.8548 120.2048
L67.8548 120.4429
" />
<path d="M67.8548 120.4429
L67.8072 120.5381
" />
<path d="M67.8072 120.5381
L67.7596 120.5857
" />
</g></g>
<g style="fill:none; 
stroke:#F2EDA1; stroke-width:0.1200; stroke-opacity:1; 
stroke-linecap:round; stroke-linejoin:round;">
<path d="M61.5400 44.8700
L61.5400 47.6300
" />
<path d="M66.7300 44.8700
L61.5400 44.8700
" />
<path d="M66.7300 44.8700
L66.7300 47.6300
" />
<path d="M66.7300 47.6300
L61.5400 47.6300
" />
<path d="M68.0000 44.8700
L69.3800 44.8700
" />
<path d="M69.3800 44.8700
L69.3800 46.2500
" />
<path d="M62.0000 100.5800
L62.0000 111.0800
" />
<path d="M65.2700 97.4300
L65.2700 98.2300
" />
<path d="M65.2700 97.4300
L66.1300 97.4300
" />
<path d="M65.7000 111.0800
L62.0000 111.0800
" />
<path d="M65.7800 100.5800
L62.0000 100.5800
" />
<path d="M71.0000 100.5800
L67.2200 100.5800
" />
<path d="M71.0000 100.5800
L71.0000 111.0800
" />
<path d="M71.0000 111.0800
L67.3000 111.0800
" />
<circle cx="66.5000" cy="105.0800" r="1.8000" /> 
<path d="M77.0000 84.5800
L77.0000 95.0800
" />
<path d="M80.2700 81.4300
L80.2700 82.2300
" />
<path d="M80.2700 81.4300
L81.1300 81.4300
" />
<path d="M80.7000 95.0800
L77.0000 95.0800
" />
<path d="M80.7800 84.5800
L77.0000 84.5800
" />
<path d="M86.0000 84.5800
L82.2200 84.5800
" />
<path d="M86.0000 84.5800
L86.0000 95.0800
" />
<path d="M86.0000 95.0800
L82.3000 95.0800
" />
<circle cx="81.5000" cy="89.0800" r="1.8000" /> 
<path d="M77.0000 100.5000
L77.0000 111.0000
" />
<path d="M80.2700 97.3500
L80.2700 98.1500
" />
<path d="M80.2700 97.3500
L81.1300 97.3500
" />
<path d="M80.7000 111.0000
L77.0000 111.0000
" />
<path d="M80.7800 100.5000
L77.0000 100.5000
" />
<path d="M86.0000 100.5000
L82.2200 100.5000
" />
<path d="M86.0000 100.5000
L86.0000 111.0000
" />
<path d="M86.0000 111.0000
L82.3000 111.0000
" />
<circle cx="81.5000" cy="105.0000" r="1.8000" /> 
<path d="M77.0000 52.5800
L77.0000 63.0800
" />
<path d="M80.2700 49.4300
L80.2700 50.2300
" />
<path d="M80.2700 49.4300
L81.1300 49.4300
" />
<path d="M80.7000 63.0800
L77.0000 63.0800
" />
<path d="M80.7800 52.5800
L77.0000 52.5800
" />
<path d="M86.0000 52.5800
L82.2200 52.5800
" />
<path d="M86.0000 52.5800
L86.0000 63.0800
" />
<path d="M86.0000 63.0800
L82.3000 63.0800
" />
<circle cx="81.5000" cy="57.0800" r="1.8000" /> 
<path d="M86.0150 120.2271
L86.0150 119.7729
" />
<path d="M87.4850 120.2271
L87.4850 119.7729
" />
<path d="M62.0000 84.6600
L62.0000 95.1600
" />
<path d="M65.2700 81.5100
L65.2700 82.3100
" />
<path d="M65.2700 81.5100
L66.1300 81.5100
" />
<path d="M65.7000 95.1600
L62.0000 95.1600
" />
<path d="M65.7800 84.6600
L62.0000 84.6600
" />
<path d="M71.0000 84.6600
L67.2200 84.6600
" />
<path d="M71.0000 84.6600
L71.0000 95.1600
" />
<path d="M71.0000 95.1600
L67.3000 95.1600
" />
<circle cx="66.5000" cy="89.1600" r="1.8000" /> 
<path d="M79.1200 125.1300
L79.1200 123.7500
" />
<path d="M80.5000 125.1300
L79.1200 125.1300
" />
<path d="M81.7700 122.3700
L86.9600 122.3700
" />
<path d="M81.7700 125.1300
L81.7700 122.3700
" />
<path d="M81.7700 125.1300
L86.9600 125.1300
" />
<path d="M86.9600 125.1300
L86.9600 122.3700
" />
<path d="M62.0000 52.6600
L62.0000 63.1600
" />
<path d="M65.2700 49.5100
L65.2700 50.3100
" />
<path d="M65.2700 49.5100
L66.1300 49.5100
" />
<path d="M65.7000 63.1600
L62.0000 63.1600
" />
<path d="M65.7800 52.6600
L62.0000 52.6600
" />
<path d="M71.0000 52.6600
L67.2200 52.6600
" />
<path d="M71.0000 52.6600
L71.0000 63.1600
" />
<path d="M71.0000 63.1600
L67.3000 63.1600
" />
<circle cx="66.5000" cy="57.1600" r="1.8000" /> 
<path d="M62.0000 68.6600
L62.0000 79.1600
" />
<path d="M65.2700 65.5100
L65.2700 66.3100
" />
<path d="M65.2700 65.5100
L66.1300 65.5100
" />
<path d="M65.7000 79.1600
L62.0000 79.1600
" />
<path d="M65.7800 68.6600
L62.0000 68.6600
" />
<path d="M71.0000 68.6600
L67.2200 68.6600
" />
<path d="M71.0000 68.6600
L71.0000 79.1600
" />
<path d="M71.0000 79.1600
L67.3000 79.1600
" />
<circle cx="66.5000" cy="73.1600" r="1.8000" /> 
<path d="M70.3600 113.8550
L70.3600 119.1550
" />
<path d="M70.3600 119.1550
L80.6400 119.1550
" />
<path d="M80.6400 113.8550
L70.3600 113.8550
" />
<path d="M80.6400 115.5050
L80.6400 113.8550
" />
<path d="M80.6400 119.1550
L80.6400 117.5050
" />
<path d="M80.6400 115.5050 A1.0000 1.0000 0.0 0 0 80.6400 117.5050" />
<path d="M77.0000 68.6000
L77.0000 79.1000
" />
<path d="M80.2700 65.4500
L80.2700 66.2500
" />
<path d="M80.2700 65.4500
L81.1300 65.4500
" />
<path d="M80.7000 79.1000
L77.0000 79.1000
" />
<path d="M80.7800 68.6000
L77.0000 68.6000
" />
<path d="M86.0000 68.6000
L82.2200 68.6000
" />
<path d="M86.0000 68.6000
L86.0000 79.1000
" />
<path d="M86.0000 79.1000
L82.3000 79.1000
" />
<circle cx="81.5000" cy="73.1000" r="1.8000" /> 
<path d="M68.2650 116.2729
L68.2650 116.7271
" />
<path d="M69.7350 116.2729
L69.7350 116.7271
" />
<path d="M62.0000 125.5800
L62.0000 136.0800
" />
<path d="M65.2700 122.4300
L65.2700 123.2300
" />
<path d="M65.2700 122.4300
L66.1300 122.4300
" />
<path d="M65.7000 136.0800
L62.0000 136.0800
" />
<path d="M65.7800 125.5800
L62.0000 125.5800
" />
<path d="M71.0000 125.5800
L67.2200 125.5800
" />
<path d="M71.0000 125.5800
L71.0000 136.0800
" />
<path d="M71.0000 136.0800
L67.3000 136.0800
" />
<circle cx="66.5000" cy="130.0800" r="1.8000" /> 
<path d="M59.1150 46.4521
L59.1150 45.9979
" />
<path d="M60.5850 46.4521
L60.5850 45.9979
" />
<path d="M83.1300 118.0300
L85.3700 118.0300
" />
<path d="M83.1300 118.1500
L85.3700 118.1500
" />
<path d="M83.1300 118.2700
L85.3700 118.2700
" />
<path d="M84.2500 113.9800
L84.2500 114.6300
" />
<path d="M84.2500 119.5200
L84.2500 118.8700
" />
<path style="fill:none; 
stroke:#F2EDA1; stroke-width:0.1200; stroke-opacity:1; 
stroke-linecap:round; stroke-linejoin:round;fill:none"
d="M 83.1300,118.8700
85.3700,118.8700
85.3700,114.6300
83.1300,114.6300
Z" /> 
<path d="M68.2650 120.2271
L68.2650 119.7729
" />
<path d="M69.7350 120.2271
L69.7350 119.7729
" />
</g> 
</svg>
