<?xml version="1.0" standalone="no"?>
 <!DOCTYPE svg PUBLIC "-//W3C//DTD SVG 1.1//EN" 
 "http://www.w3.org/Graphics/SVG/1.1/DTD/svg11.dtd"> 
<svg
  xmlns:svg="http://www.w3.org/2000/svg"
  xmlns="http://www.w3.org/2000/svg"
  xmlns:xlink="http://www.w3.org/1999/xlink"
  version="1.1"
  width="297.0022mm" height="210.0072mm" viewBox="0.0000 0.0000 297.0022 210.0072">
<title>SVG Image created as MIDI_CV_Trig-F_Paste.svg date 2025/12/09 20:25:10 </title>
  <desc>Image generated by PCBNEW </desc>
<g style="fill:#000000; fill-opacity:1.0000;stroke:#000000; stroke-opacity:1.0000;
stroke-linecap:round; stroke-linejoin:round;"
 transform="translate(0 0) scale(1 1)">
<path style="fill:#B4A09A; fill-opacity:0.9000; stroke:none;fill-rule:evenodd;"
d="M 86.3000,121.4250
86.2043,121.4060
86.1232,121.3518
86.0690,121.2707
86.0500,121.1750
86.0500,120.6500
86.0690,120.5543
86.1232,120.4732
86.2043,120.4190
86.3000,120.4000
87.2000,120.4000
87.2957,120.4190
87.3768,120.4732
87.4310,120.5543
87.4500,120.6500
87.4500,121.1750
87.4310,121.2707
87.3768,121.3518
87.2957,121.4060
87.2000,121.4250
Z" /> 
<path style="fill:#B4A09A; fill-opacity:0.9000; stroke:none;fill-rule:evenodd;"
d="M 86.3000,119.6000
86.2043,119.5810
86.1232,119.5268
86.0690,119.4457
86.0500,119.3500
86.0500,118.8250
86.0690,118.7293
86.1232,118.6482
86.2043,118.5940
86.3000,118.5750
87.2000,118.5750
87.2957,118.5940
87.3768,118.6482
87.4310,118.7293
87.4500,118.8250
87.4500,119.3500
87.4310,119.4457
87.3768,119.5268
87.2957,119.5810
87.2000,119.6000
Z" /> 
<path style="fill:#B4A09A; fill-opacity:0.9000; stroke:none;fill-rule:evenodd;"
d="M 69.4500,115.0750
69.5457,115.0940
69.6268,115.1482
69.6810,115.2293
69.7000,115.3250
69.7000,115.8500
69.6810,115.9457
69.6268,116.0268
69.5457,116.0810
69.4500,116.1000
68.5500,116.1000
68.4543,116.0810
68.3732,116.0268
68.3190,115.9457
68.3000,115.8500
68.3000,115.3250
68.3190,115.2293
68.3732,115.1482
68.4543,115.0940
68.5500,115.0750
Z" /> 
<path style="fill:#B4A09A; fill-opacity:0.9000; stroke:none;fill-rule:evenodd;"
d="M 69.4500,116.9000
69.5457,116.9190
69.6268,116.9732
69.6810,117.0543
69.7000,117.1500
69.7000,117.6750
69.6810,117.7707
69.6268,117.8518
69.5457,117.9060
69.4500,117.9250
68.5500,117.9250
68.4543,117.9060
68.3732,117.8518
68.3190,117.7707
68.3000,117.6750
68.3000,117.1500
68.3190,117.0543
68.3732,116.9732
68.4543,116.9190
68.5500,116.9000
Z" /> 
<path style="fill:#B4A09A; fill-opacity:0.9000; stroke:none;fill-rule:evenodd;"
d="M 59.4000,47.6500
59.3043,47.6310
59.2232,47.5768
59.1690,47.4957
59.1500,47.4000
59.1500,46.8750
59.1690,46.7793
59.2232,46.6982
59.3043,46.6440
59.4000,46.6250
60.3000,46.6250
60.3957,46.6440
60.4768,46.6982
60.5310,46.7793
60.5500,46.8750
60.5500,47.4000
60.5310,47.4957
60.4768,47.5768
60.3957,47.6310
60.3000,47.6500
Z" /> 
<path style="fill:#B4A09A; fill-opacity:0.9000; stroke:none;fill-rule:evenodd;"
d="M 59.4000,45.8250
59.3043,45.8060
59.2232,45.7518
59.1690,45.6707
59.1500,45.5750
59.1500,45.0500
59.1690,44.9543
59.2232,44.8732
59.3043,44.8190
59.4000,44.8000
60.3000,44.8000
60.3957,44.8190
60.4768,44.8732
60.5310,44.9543
60.5500,45.0500
60.5500,45.5750
60.5310,45.6707
60.4768,45.7518
60.3957,45.8060
60.3000,45.8250
Z" /> 
<path style="fill:#B4A09A; fill-opacity:0.9000; stroke:none;fill-rule:evenodd;"
d="M 68.5500,121.4250
68.4543,121.4060
68.3732,121.3518
68.3190,121.2707
68.3000,121.1750
68.3000,120.6500
68.3190,120.5543
68.3732,120.4732
68.4543,120.4190
68.5500,120.4000
69.4500,120.4000
69.5457,120.4190
69.6268,120.4732
69.6810,120.5543
69.7000,120.6500
69.7000,121.1750
69.6810,121.2707
69.6268,121.3518
69.5457,121.4060
69.4500,121.4250
Z" /> 
<path style="fill:#B4A09A; fill-opacity:0.9000; stroke:none;fill-rule:evenodd;"
d="M 68.5500,119.6000
68.4543,119.5810
68.3732,119.5268
68.3190,119.4457
68.3000,119.3500
68.3000,118.8250
68.3190,118.7293
68.3732,118.6482
68.4543,118.5940
68.5500,118.5750
69.4500,118.5750
69.5457,118.5940
69.6268,118.6482
69.6810,118.7293
69.7000,118.8250
69.7000,119.3500
69.6810,119.4457
69.6268,119.5268
69.5457,119.5810
69.4500,119.6000
Z" /> 
</g> 
</svg>
