<?xml version="1.0" standalone="no"?>
 <!DOCTYPE svg PUBLIC "-//W3C//DTD SVG 1.1//EN" 
 "http://www.w3.org/Graphics/SVG/1.1/DTD/svg11.dtd"> 
<svg
  xmlns:svg="http://www.w3.org/2000/svg"
  xmlns="http://www.w3.org/2000/svg"
  xmlns:xlink="http://www.w3.org/1999/xlink"
  version="1.1"
  width="297.0022mm" height="210.0072mm" viewBox="0.0000 0.0000 297.0022 210.0072">
<title>SVG Image created as MIDI_CV_Trig-F_Mask.svg date 2025/12/09 20:25:10 </title>
  <desc>Image generated by PCBNEW </desc>
<g style="fill:#000000; fill-opacity:1.0000;stroke:#000000; stroke-opacity:1.0000;
stroke-linecap:round; stroke-linejoin:round;"
 transform="translate(0 0) scale(1 1)">
<path style="fill:#D864FF; fill-opacity:0.4000; stroke:none;fill-rule:evenodd;"
d="M 67.1500,45.4000
68.8500,45.4000
68.8500,47.1000
67.1500,47.1000
Z" /> 
</g>
<g style="fill:#D864FF; fill-opacity:0.4000; stroke:none;">
<circle cx="65.4600" cy="46.2500" r="0.8500" /> 
</g>
<g style="fill:#D864FF; fill-opacity:0.4000; stroke:none;">
<circle cx="62.9200" cy="46.2500" r="0.8500" /> 
<path style="fill:#D864FF; fill-opacity:0.4000; stroke:none;fill-rule:evenodd;"
d="M 67.4650,97.6850
67.4650,99.5150
65.5350,99.5150
65.5350,97.6850
Z" /> 
</g>
<g style="fill:#D864FF; fill-opacity:0.4000; stroke:none;">
<circle cx="66.5000" cy="110.0000" r="1.0650" /> 
</g>
<g style="fill:#D864FF; fill-opacity:0.4000; stroke:none;">
<circle cx="66.5000" cy="101.7000" r="1.0650" /> 
<path style="fill:#D864FF; fill-opacity:0.4000; stroke:none;fill-rule:evenodd;"
d="M 82.4650,81.6850
82.4650,83.5150
80.5350,83.5150
80.5350,81.6850
Z" /> 
</g>
<g style="fill:#D864FF; fill-opacity:0.4000; stroke:none;">
<circle cx="81.5000" cy="94.0000" r="1.0650" /> 
</g>
<g style="fill:#D864FF; fill-opacity:0.4000; stroke:none;">
<circle cx="81.5000" cy="85.7000" r="1.0650" /> 
<path style="fill:#D864FF; fill-opacity:0.4000; stroke:none;fill-rule:evenodd;"
d="M 82.4650,97.6050
82.4650,99.4350
80.5350,99.4350
80.5350,97.6050
Z" /> 
</g>
<g style="fill:#D864FF; fill-opacity:0.4000; stroke:none;">
<circle cx="81.5000" cy="109.9200" r="1.0650" /> 
</g>
<g style="fill:#D864FF; fill-opacity:0.4000; stroke:none;">
<circle cx="81.5000" cy="101.6200" r="1.0650" /> 
<path style="fill:#D864FF; fill-opacity:0.4000; stroke:none;fill-rule:evenodd;"
d="M 82.4650,49.6850
82.4650,51.5150
80.5350,51.5150
80.5350,49.6850
Z" /> 
</g>
<g style="fill:#D864FF; fill-opacity:0.4000; stroke:none;">
<circle cx="81.5000" cy="62.0000" r="1.0650" /> 
</g>
<g style="fill:#D864FF; fill-opacity:0.4000; stroke:none;">
<circle cx="81.5000" cy="53.7000" r="1.0650" /> 
<path style="fill:#D864FF; fill-opacity:0.4000; stroke:none;fill-rule:evenodd;"
d="M 86.3000,121.4250
86.2043,121.4060
86.1232,121.3518
86.0690,121.2707
86.0500,121.1750
86.0500,120.6500
86.0690,120.5543
86.1232,120.4732
86.2043,120.4190
86.3000,120.4000
87.2000,120.4000
87.2957,120.4190
87.3768,120.4732
87.4310,120.5543
87.4500,120.6500
87.4500,121.1750
87.4310,121.2707
87.3768,121.3518
87.2957,121.4060
87.2000,121.4250
Z" /> 
<path style="fill:#D864FF; fill-opacity:0.4000; stroke:none;fill-rule:evenodd;"
d="M 86.3000,119.6000
86.2043,119.5810
86.1232,119.5268
86.0690,119.4457
86.0500,119.3500
86.0500,118.8250
86.0690,118.7293
86.1232,118.6482
86.2043,118.5940
86.3000,118.5750
87.2000,118.5750
87.2957,118.5940
87.3768,118.6482
87.4310,118.7293
87.4500,118.8250
87.4500,119.3500
87.4310,119.4457
87.3768,119.5268
87.2957,119.5810
87.2000,119.6000
Z" /> 
<path style="fill:#D864FF; fill-opacity:0.4000; stroke:none;fill-rule:evenodd;"
d="M 67.4650,81.7650
67.4650,83.5950
65.5350,83.5950
65.5350,81.7650
Z" /> 
</g>
<g style="fill:#D864FF; fill-opacity:0.4000; stroke:none;">
<circle cx="66.5000" cy="94.0800" r="1.0650" /> 
</g>
<g style="fill:#D864FF; fill-opacity:0.4000; stroke:none;">
<circle cx="66.5000" cy="85.7800" r="1.0650" /> 
<path style="fill:#D864FF; fill-opacity:0.4000; stroke:none;fill-rule:evenodd;"
d="M 81.3500,124.6000
79.6500,124.6000
79.6500,122.9000
81.3500,122.9000
Z" /> 
</g>
<g style="fill:#D864FF; fill-opacity:0.4000; stroke:none;">
<circle cx="83.0400" cy="123.7500" r="0.8500" /> 
</g>
<g style="fill:#D864FF; fill-opacity:0.4000; stroke:none;">
<circle cx="85.5800" cy="123.7500" r="0.8500" /> 
<path style="fill:#D864FF; fill-opacity:0.4000; stroke:none;fill-rule:evenodd;"
d="M 67.4650,49.7650
67.4650,51.5950
65.5350,51.5950
65.5350,49.7650
Z" /> 
</g>
<g style="fill:#D864FF; fill-opacity:0.4000; stroke:none;">
<circle cx="66.5000" cy="62.0800" r="1.0650" /> 
</g>
<g style="fill:#D864FF; fill-opacity:0.4000; stroke:none;">
<circle cx="66.5000" cy="53.7800" r="1.0650" /> 
<path style="fill:#D864FF; fill-opacity:0.4000; stroke:none;fill-rule:evenodd;"
d="M 67.4650,65.7650
67.4650,67.5950
65.5350,67.5950
65.5350,65.7650
Z" /> 
</g>
<g style="fill:#D864FF; fill-opacity:0.4000; stroke:none;">
<circle cx="66.5000" cy="78.0800" r="1.0650" /> 
</g>
<g style="fill:#D864FF; fill-opacity:0.4000; stroke:none;">
<circle cx="66.5000" cy="69.7800" r="1.0650" /> 
<path style="fill:#D864FF; fill-opacity:0.4000; stroke:none;fill-rule:evenodd;"
d="M 79.8600,111.8950
79.9557,111.9140
80.0368,111.9682
80.0910,112.0493
80.1100,112.1450
80.1100,113.2450
80.0910,113.3407
80.0368,113.4218
79.9557,113.4760
79.8600,113.4950
78.7600,113.4950
78.6643,113.4760
78.5832,113.4218
78.5290,113.3407
78.5100,113.2450
78.5100,112.1450
78.5290,112.0493
78.5832,111.9682
78.6643,111.9140
78.7600,111.8950
Z" /> 
</g>
<g style="fill:#D864FF; fill-opacity:0.4000; stroke:none;">
<circle cx="76.7700" cy="112.6950" r="0.8000" /> 
</g>
<g style="fill:#D864FF; fill-opacity:0.4000; stroke:none;">
<circle cx="74.2300" cy="112.6950" r="0.8000" /> 
</g>
<g style="fill:#D864FF; fill-opacity:0.4000; stroke:none;">
<circle cx="71.6900" cy="112.6950" r="0.8000" /> 
</g>
<g style="fill:#D864FF; fill-opacity:0.4000; stroke:none;">
<circle cx="71.6900" cy="120.3150" r="0.8000" /> 
</g>
<g style="fill:#D864FF; fill-opacity:0.4000; stroke:none;">
<circle cx="74.2300" cy="120.3150" r="0.8000" /> 
</g>
<g style="fill:#D864FF; fill-opacity:0.4000; stroke:none;">
<circle cx="76.7700" cy="120.3150" r="0.8000" /> 
</g>
<g style="fill:#D864FF; fill-opacity:0.4000; stroke:none;">
<circle cx="79.3100" cy="120.3150" r="0.8000" /> 
<path style="fill:#D864FF; fill-opacity:0.4000; stroke:none;fill-rule:evenodd;"
d="M 82.4650,65.7050
82.4650,67.5350
80.5350,67.5350
80.5350,65.7050
Z" /> 
</g>
<g style="fill:#D864FF; fill-opacity:0.4000; stroke:none;">
<circle cx="81.5000" cy="78.0200" r="1.0650" /> 
</g>
<g style="fill:#D864FF; fill-opacity:0.4000; stroke:none;">
<circle cx="81.5000" cy="69.7200" r="1.0650" /> 
<path style="fill:#D864FF; fill-opacity:0.4000; stroke:none;fill-rule:evenodd;"
d="M 69.4500,115.0750
69.5457,115.0940
69.6268,115.1482
69.6810,115.2293
69.7000,115.3250
69.7000,115.8500
69.6810,115.9457
69.6268,116.0268
69.5457,116.0810
69.4500,116.1000
68.5500,116.1000
68.4543,116.0810
68.3732,116.0268
68.3190,115.9457
68.3000,115.8500
68.3000,115.3250
68.3190,115.2293
68.3732,115.1482
68.4543,115.0940
68.5500,115.0750
Z" /> 
<path style="fill:#D864FF; fill-opacity:0.4000; stroke:none;fill-rule:evenodd;"
d="M 69.4500,116.9000
69.5457,116.9190
69.6268,116.9732
69.6810,117.0543
69.7000,117.1500
69.7000,117.6750
69.6810,117.7707
69.6268,117.8518
69.5457,117.9060
69.4500,117.9250
68.5500,117.9250
68.4543,117.9060
68.3732,117.8518
68.3190,117.7707
68.3000,117.6750
68.3000,117.1500
68.3190,117.0543
68.3732,116.9732
68.4543,116.9190
68.5500,116.9000
Z" /> 
<path style="fill:#D864FF; fill-opacity:0.4000; stroke:none;fill-rule:evenodd;"
d="M 67.4650,122.6850
67.4650,124.5150
65.5350,124.5150
65.5350,122.6850
Z" /> 
</g>
<g style="fill:#D864FF; fill-opacity:0.4000; stroke:none;">
<circle cx="66.5000" cy="135.0000" r="1.0650" /> 
</g>
<g style="fill:#D864FF; fill-opacity:0.4000; stroke:none;">
<circle cx="66.5000" cy="126.7000" r="1.0650" /> 
<path style="fill:#D864FF; fill-opacity:0.4000; stroke:none;fill-rule:evenodd;"
d="M 59.4000,47.6500
59.3043,47.6310
59.2232,47.5768
59.1690,47.4957
59.1500,47.4000
59.1500,46.8750
59.1690,46.7793
59.2232,46.6982
59.3043,46.6440
59.4000,46.6250
60.3000,46.6250
60.3957,46.6440
60.4768,46.6982
60.5310,46.7793
60.5500,46.8750
60.5500,47.4000
60.5310,47.4957
60.4768,47.5768
60.3957,47.6310
60.3000,47.6500
Z" /> 
<path style="fill:#D864FF; fill-opacity:0.4000; stroke:none;fill-rule:evenodd;"
d="M 59.4000,45.8250
59.3043,45.8060
59.2232,45.7518
59.1690,45.6707
59.1500,45.5750
59.1500,45.0500
59.1690,44.9543
59.2232,44.8732
59.3043,44.8190
59.4000,44.8000
60.3000,44.8000
60.3957,44.8190
60.4768,44.8732
60.5310,44.9543
60.5500,45.0500
60.5500,45.5750
60.5310,45.6707
60.4768,45.7518
60.3957,45.8060
60.3000,45.8250
Z" /> 
<path style="fill:#D864FF; fill-opacity:0.4000; stroke:none;fill-rule:evenodd;"
d="M 83.7000,121.3600
83.6043,121.3410
83.5232,121.2868
83.4690,121.2057
83.4500,121.1100
83.4500,120.0100
83.4690,119.9143
83.5232,119.8332
83.6043,119.7790
83.7000,119.7600
84.8000,119.7600
84.8957,119.7790
84.9768,119.8332
85.0310,119.9143
85.0500,120.0100
85.0500,121.1100
85.0310,121.2057
84.9768,121.2868
84.8957,121.3410
84.8000,121.3600
Z" /> 
</g>
<g style="fill:#D864FF; fill-opacity:0.4000; stroke:none;">
<circle cx="84.2500" cy="112.9400" r="0.8000" /> 
<path style="fill:#D864FF; fill-opacity:0.4000; stroke:none;fill-rule:evenodd;"
d="M 68.5500,121.4250
68.4543,121.4060
68.3732,121.3518
68.3190,121.2707
68.3000,121.1750
68.3000,120.6500
68.3190,120.5543
68.3732,120.4732
68.4543,120.4190
68.5500,120.4000
69.4500,120.4000
69.5457,120.4190
69.6268,120.4732
69.6810,120.5543
69.7000,120.6500
69.7000,121.1750
69.6810,121.2707
69.6268,121.3518
69.5457,121.4060
69.4500,121.4250
Z" /> 
<path style="fill:#D864FF; fill-opacity:0.4000; stroke:none;fill-rule:evenodd;"
d="M 68.5500,119.6000
68.4543,119.5810
68.3732,119.5268
68.3190,119.4457
68.3000,119.3500
68.3000,118.8250
68.3190,118.7293
68.3732,118.6482
68.4543,118.5940
68.5500,118.5750
69.4500,118.5750
69.5457,118.5940
69.6268,118.6482
69.6810,118.7293
69.7000,118.8250
69.7000,119.3500
69.6810,119.4457
69.6268,119.5268
69.5457,119.5810
69.4500,119.6000
Z" /> 
<path style="fill:#D864FF; fill-opacity:0.4000; stroke:none;fill-rule:evenodd;"
d="M 67.2000,141.5500
67.1043,141.5310
67.0232,141.4768
66.9690,141.3957
66.9500,141.3000
66.9500,140.2000
66.9690,140.1043
67.0232,140.0232
67.1043,139.9690
67.2000,139.9500
68.3000,139.9500
68.3957,139.9690
68.4768,140.0232
68.5310,140.1043
68.5500,140.2000
68.5500,141.3000
68.5310,141.3957
68.4768,141.4768
68.3957,141.5310
68.3000,141.5500
Z" /> 
</g>
<g style="fill:#D864FF; fill-opacity:0.4000; stroke:none;">
<circle cx="67.7500" cy="138.7500" r="0.8000" /> 
<path style="fill:#D864FF; fill-opacity:0.4000; stroke:none;fill-rule:evenodd;"
d="M 51.3000,131.3250
51.3190,131.2293
51.3732,131.1482
51.4543,131.0940
51.5500,131.0750
52.6500,131.0750
52.7457,131.0940
52.8268,131.1482
52.8810,131.2293
52.9000,131.3250
52.9000,132.4250
52.8810,132.5207
52.8268,132.6018
52.7457,132.6560
52.6500,132.6750
51.5500,132.6750
51.4543,132.6560
51.3732,132.6018
51.3190,132.5207
51.3000,132.4250
Z" /> 
</g>
<g style="fill:#D864FF; fill-opacity:0.4000; stroke:none;">
<circle cx="54.1000" cy="131.8750" r="0.8000" /> 
<path style="fill:#D864FF; fill-opacity:0.4000; stroke:none;fill-rule:evenodd;"
d="M 60.4750,132.5500
60.4560,132.6457
60.4018,132.7268
60.3207,132.7810
60.2250,132.8000
59.1250,132.8000
59.0293,132.7810
58.9482,132.7268
58.8940,132.6457
58.8750,132.5500
58.8750,131.4500
58.8940,131.3543
58.9482,131.2732
59.0293,131.2190
59.1250,131.2000
60.2250,131.2000
60.3207,131.2190
60.4018,131.2732
60.4560,131.3543
60.4750,131.4500
Z" /> 
</g>
<g style="fill:#D864FF; fill-opacity:0.4000; stroke:none;">
<circle cx="57.6750" cy="132.0000" r="0.8000" /> 
<path style="fill:#D864FF; fill-opacity:0.4000; stroke:none;fill-rule:evenodd;"
d="M 80.6100,143.4400
80.6290,143.3443
80.6832,143.2632
80.7643,143.2090
80.8600,143.1900
82.0600,143.1900
82.1557,143.2090
82.2368,143.2632
82.2910,143.3443
82.3100,143.4400
82.3100,144.6400
82.2910,144.7357
82.2368,144.8168
82.1557,144.8710
82.0600,144.8900
80.8600,144.8900
80.7643,144.8710
80.6832,144.8168
80.6290,144.7357
80.6100,144.6400
Z" /> 
</g>
<g style="fill:#D864FF; fill-opacity:0.4000; stroke:none;">
<circle cx="84.0000" cy="144.0400" r="0.8500" /> 
</g>
<g style="fill:#D864FF; fill-opacity:0.4000; stroke:none;">
<circle cx="81.4600" cy="141.5000" r="0.8500" /> 
</g>
<g style="fill:#D864FF; fill-opacity:0.4000; stroke:none;">
<circle cx="84.0000" cy="141.5000" r="0.8500" /> 
</g>
<g style="fill:#D864FF; fill-opacity:0.4000; stroke:none;">
<circle cx="81.4600" cy="138.9600" r="0.8500" /> 
</g>
<g style="fill:#D864FF; fill-opacity:0.4000; stroke:none;">
<circle cx="84.0000" cy="138.9600" r="0.8500" /> 
</g>
<g style="fill:#D864FF; fill-opacity:0.4000; stroke:none;">
<circle cx="81.4600" cy="136.4200" r="0.8500" /> 
</g>
<g style="fill:#D864FF; fill-opacity:0.4000; stroke:none;">
<circle cx="84.0000" cy="136.4200" r="0.8500" /> 
</g>
<g style="fill:#D864FF; fill-opacity:0.4000; stroke:none;">
<circle cx="81.4600" cy="133.8800" r="0.8500" /> 
</g>
<g style="fill:#D864FF; fill-opacity:0.4000; stroke:none;">
<circle cx="84.0000" cy="133.8800" r="0.8500" /> 
<path style="fill:#D864FF; fill-opacity:0.4000; stroke:none;fill-rule:evenodd;"
d="M 74.4250,142.4199
74.5207,142.4389
74.6018,142.4931
74.6560,142.5742
74.6750,142.6699
74.6750,143.7699
74.6560,143.8656
74.6018,143.9467
74.5207,144.0009
74.4250,144.0199
73.3250,144.0199
73.2293,144.0009
73.1482,143.9467
73.0940,143.8656
73.0750,143.7699
73.0750,142.6699
73.0940,142.5742
73.1482,142.4931
73.2293,142.4389
73.3250,142.4199
Z" /> 
</g>
<g style="fill:#D864FF; fill-opacity:0.4000; stroke:none;">
<circle cx="73.8750" cy="145.2199" r="0.8000" /> 
<path style="fill:#D864FF; fill-opacity:0.4000; stroke:none;fill-rule:evenodd;"
d="M 60.5000,127.5000
59.5000,127.5000
59.5000,126.5000
60.5000,126.5000
Z" /> 
</g>
<g style="fill:#D864FF; fill-opacity:0.4000; stroke:none;">
<circle cx="60.0000" cy="125.7300" r="0.5000" /> 
</g>
<g style="fill:#D864FF; fill-opacity:0.4000; stroke:none;">
<circle cx="58.7300" cy="127.0000" r="0.5000" /> 
</g>
<g style="fill:#D864FF; fill-opacity:0.4000; stroke:none;">
<circle cx="58.7300" cy="125.7300" r="0.5000" /> 
</g>
<g style="fill:#D864FF; fill-opacity:0.4000; stroke:none;">
<circle cx="57.4600" cy="127.0000" r="0.5000" /> 
</g>
<g style="fill:#D864FF; fill-opacity:0.4000; stroke:none;">
<circle cx="57.4600" cy="125.7300" r="0.5000" /> 
</g>
<g style="fill:#D864FF; fill-opacity:0.4000; stroke:none;">
<circle cx="56.1900" cy="127.0000" r="0.5000" /> 
</g>
<g style="fill:#D864FF; fill-opacity:0.4000; stroke:none;">
<circle cx="56.1900" cy="125.7300" r="0.5000" /> 
</g>
<g style="fill:#D864FF; fill-opacity:0.4000; stroke:none;">
<circle cx="54.9200" cy="127.0000" r="0.5000" /> 
</g>
<g style="fill:#D864FF; fill-opacity:0.4000; stroke:none;">
<circle cx="54.9200" cy="125.7300" r="0.5000" /> 
</g> 
</svg>
